SplineFontDB: 3.2
FontName: Variant
FullName: Variant
FamilyName: Variant
Weight: Regular
Copyright: Copyright (c) 2025, LunaCapra
UComments: "2025-6-22: Created with FontForge (http://fontforge.org)"
Version: 001.000
ItalicAngle: 0
UnderlinePosition: -100
UnderlineWidth: 50
Ascent: 900
Descent: 100
InvalidEm: 0
LayerCount: 2
Layer: 0 0 "Back" 1
Layer: 1 0 "Fore" 0
XUID: [1021 52 1149003410 9514689]
StyleMap: 0x0000
FSType: 0
OS2Version: 0
OS2_WeightWidthSlopeOnly: 0
OS2_UseTypoMetrics: 1
CreationTime: 1750593872
ModificationTime: 1750629706
PfmFamily: 17
TTFWeight: 400
TTFWidth: 5
LineGap: 0
VLineGap: 90
OS2TypoAscent: 1800
OS2TypoAOffset: 0
OS2TypoDescent: -200
OS2TypoDOffset: 0
OS2TypoLinegap: 0
OS2WinAscent: 1744
OS2WinAOffset: 0
OS2WinDescent: 288
OS2WinDOffset: 0
HheadAscent: 1744
HheadAOffset: 0
HheadDescent: -88
HheadDOffset: 0
OS2Vendor: 'PfEd'
MarkAttachClasses: 1
DEI: 91125
Encoding: ISO8859-1
UnicodeInterp: none
NameList: AGL For New Fonts
DisplaySize: -48
AntiAlias: 1
FitToEm: 0
WinInfo: 34 17 7
BeginPrivate: 0
EndPrivate
BeginChars: 256 95

StartChar: A
Encoding: 65 65 0
Width: 727
VWidth: 1815
Flags: W
HStem: 0 21G<75 262 450 638> 0 21G<75 262 450 638> 188 187<262 450> 562 188<297.941 414.08>
VStem: 75 187<0 188 375 526.246> 450 188<0 188 375 526.246>
LayerCount: 2
Fore
SplineSet
450 375 m 1x3c
 450 470 l 2
 450 522 408 562 356 562 c 0
 304 562 262 522 262 470 c 2
 262 375 l 1
 450 375 l 1x3c
450 0 m 1xbc
 450 188 l 1
 262 188 l 1
 262 0 l 1
 75 0 l 1
 75 470 l 2
 75 624 202 750 356 750 c 0
 510 750 638 624 638 470 c 2
 638 0 l 1
 450 0 l 1xbc
EndSplineSet
Validated: 1
EndChar

StartChar: a
Encoding: 97 97 1
Width: 631
VWidth: 2100
Flags: W
HStem: 0 21G<279 544> 0 21G<279 544> 542 20G<279 544>
VStem: 75 187<222.37 338.283> 356 188<188 375>
LayerCount: 2
Fore
SplineSet
356 562 m 2xb8
 544 562 l 1
 544 0 l 1
 356 0 l 2
 202 0 75 126 75 280 c 0
 75 434 202 562 356 562 c 2xb8
356 375 m 1
 304 375 262 332 262 280 c 0
 262 228 304 188 356 188 c 1
 356 375 l 1
EndSplineSet
Validated: 1
EndChar

StartChar: b
Encoding: 98 98 2
Width: 631
VWidth: 1800
Flags: W
HStem: 0 21G<75 339> 0 21G<75 339> 730 20G<75 262>
VStem: 75 187<188 375 562 750> 356 188<222.37 338.283>
LayerCount: 2
Fore
SplineSet
262 0 m 2xb8
 75 0 l 1
 75 750 l 1
 262 750 l 1
 262 562 l 1
 416 562 544 434 544 280 c 0
 544 126 416 0 262 0 c 2xb8
262 188 m 1
 314 188 356 228 356 280 c 0
 356 332 314 375 262 375 c 1
 262 188 l 1
EndSplineSet
Validated: 1
EndChar

StartChar: B
Encoding: 66 66 3
Width: 619
VWidth: 2769
Flags: WO
HStem: 0 21G<75 339.5> 0 21G<75 339.5> 375 94<262 321.828> 730 20G<75 408>
VStem: 75 187<187 375 469 562> 356 188<222.798 340.16 503.846 562>
LayerCount: 2
Fore
SplineSet
356 281 m 0x3c
 356 333 314 375 262 375 c 1
 262 187 l 1
 314 187 356 229 356 281 c 0x3c
356 562 m 1
 262 562 l 1
 262 469 l 1
 314 469 356 510 356 562 c 1
544 562 m 2
 544 511 530 463 506 422 c 1
 530 381 544 332 544 281 c 0
 544 126 417 0 262 0 c 2
 75 0 l 1xbc
 75 750 l 1
 262 750 l 1
 356 750 l 2
 460 750 544 666 544 563 c 2
 544 562 l 2
EndSplineSet
Validated: 1
EndChar

StartChar: C
Encoding: 67 67 4
Width: 631
VWidth: 1815
Flags: W
HStem: 0 188<365.656 544> 562 188<365.656 544>
VStem: 75 187<290.543 459.457>
LayerCount: 2
Fore
SplineSet
75 375 m 0
 75 581 244 750 450 750 c 2
 544 750 l 1
 544 562 l 1
 450 562 l 2
 348 562 262 477 262 375 c 0
 262 273 348 188 450 188 c 2
 544 188 l 1
 544 0 l 1
 450 0 l 2
 244 0 75 169 75 375 c 0
EndSplineSet
Validated: 1
EndChar

StartChar: y
Encoding: 121 121 5
Width: 631
VWidth: 1515
Flags: W
HStem: -188 188<170 318.332> 542 20G<75 262 356 544>
VStem: 75 187<318.711 562> 356 188<37.668 94 280 562>
LayerCount: 2
Fore
SplineSet
262 562 m 1
 262 375 l 2
 262 323 304 280 356 280 c 1
 356 562 l 1
 544 562 l 1
 544 94 l 2
 544 -60 416 -188 262 -188 c 2
 170 -188 l 1
 170 0 l 1
 262 0 l 2
 314 0 356 42 356 94 c 1
 202 94 75 221 75 375 c 2
 75 562 l 1
 262 562 l 1
EndSplineSet
Validated: 1
EndChar

StartChar: D
Encoding: 68 68 6
Width: 727
VWidth: 1815
Flags: W
HStem: 0 21G<75 365> 0 21G<75 365> 730 20G<75 365>
VStem: 75 187<188 562> 450 188<290.543 459.457>
LayerCount: 2
Fore
SplineSet
450 375 m 0x38
 450 477 364 562 262 562 c 1
 262 188 l 1
 364 188 450 273 450 375 c 0x38
638 375 m 0
 638 169 468 0 262 0 c 2
 75 0 l 1xb8
 75 750 l 1
 262 750 l 2
 468 750 638 581 638 375 c 0
EndSplineSet
Validated: 1
EndChar

StartChar: E
Encoding: 69 69 7
Width: 540
VWidth: 1815
Flags: W
HStem: 0 188<262 450> 280 190<262 450> 562 188<262 450>
VStem: 75 375<0 188 280 470 562 750> 75 187<188 280 470 562>
CounterMasks: 1 e0
LayerCount: 2
Fore
SplineSet
262 750 m 1xe8
 450 750 l 1
 450 562 l 1xf0
 262 562 l 1
 262 470 l 1xe8
 450 470 l 1
 450 280 l 1xf0
 262 280 l 1
 262 188 l 1xe8
 450 188 l 1
 450 0 l 1xf0
 262 0 l 1xe8
 75 0 l 1
 75 750 l 1xf0
 262 750 l 1xe8
EndSplineSet
Validated: 1
EndChar

StartChar: F
Encoding: 70 70 8
Width: 540
VWidth: 1815
Flags: W
HStem: 0 21G<75 262> 0 21G<75 262> 280 190<262 450> 562 188<262 450>
VStem: 75 375<280 470 562 750> 75 187<0 280 470 562>
LayerCount: 2
Fore
SplineSet
75 0 m 1xb4
 75 750 l 1xb8
 262 750 l 1xb4
 450 750 l 1
 450 562 l 1xb8
 262 562 l 1
 262 470 l 1xb4
 450 470 l 1
 450 280 l 1xb8
 262 280 l 1
 262 0 l 1
 75 0 l 1xb4
EndSplineSet
Validated: 1
EndChar

StartChar: G
Encoding: 71 71 9
Width: 727
VWidth: 1815
Flags: W
HStem: 0 21G<347 638> 0 21G<347 638> 562 188<365.656 544>
VStem: 75 187<290.543 459.457> 450 188<188 375>
LayerCount: 2
Fore
SplineSet
75 375 m 0xb8
 75 581 244 750 450 750 c 2
 544 750 l 1
 544 562 l 1
 450 562 l 2
 348 562 262 477 262 375 c 0
 262 273 348 188 450 188 c 1
 450 375 l 1
 638 375 l 1
 638 0 l 1
 450 0 l 2
 244 0 75 169 75 375 c 0xb8
EndSplineSet
Validated: 1
EndChar

StartChar: H
Encoding: 72 72 10
Width: 727
VWidth: 1815
Flags: W
HStem: 0 21G<75 262 450 638> 0 21G<75 262 450 638> 280 190<262 450> 730 20G<75 262 450 638>
VStem: 75 187<0 280 470 750> 450 188<0 280 470 750>
LayerCount: 2
Fore
SplineSet
450 0 m 1xbc
 450 280 l 1
 262 280 l 1
 262 0 l 1
 75 0 l 1
 75 750 l 1
 262 750 l 1
 262 470 l 1
 450 470 l 1
 450 750 l 1
 638 750 l 1
 638 0 l 1
 450 0 l 1xbc
EndSplineSet
Validated: 1
EndChar

StartChar: I
Encoding: 73 73 11
Width: 540
VWidth: 1815
Flags: W
HStem: 0 188<75 170 356 450> 562 188<75 170 356 450>
VStem: 75 375<0 188 562 750>
LayerCount: 2
Fore
SplineSet
170 188 m 1
 170 562 l 1
 75 562 l 1
 75 750 l 1
 170 750 l 1
 356 750 l 1
 450 750 l 1
 450 562 l 1
 356 562 l 1
 356 188 l 1
 450 188 l 1
 450 0 l 1
 356 0 l 1
 170 0 l 1
 75 0 l 1
 75 188 l 1
 170 188 l 1
EndSplineSet
Validated: 1
EndChar

StartChar: J
Encoding: 74 74 12
Width: 631
VWidth: 1815
Flags: W
HStem: 0 188<75 254.29> 730 20G<356 544>
VStem: 356 188<290.656 750>
LayerCount: 2
Fore
SplineSet
356 375 m 2
 356 750 l 1
 544 750 l 1
 544 375 l 2
 544 169 376 0 170 0 c 2
 75 0 l 1
 75 188 l 1
 170 188 l 2
 272 188 356 273 356 375 c 2
EndSplineSet
Validated: 1
EndChar

StartChar: K
Encoding: 75 75 13
Width: 631
VWidth: 1815
Flags: W
HStem: 0 21G<75 262 356 544> 0 21G<75 262 356 544> 730 20G<75 262 356 544>
VStem: 75 187<0 280 470 750> 356 188<0 246.039 503.961 750>
LayerCount: 2
Fore
SplineSet
356 0 m 1xb8
 356 188 l 2
 356 240 314 280 262 280 c 1
 262 0 l 1
 75 0 l 1
 75 750 l 1
 262 750 l 1
 262 470 l 1
 314 470 356 510 356 562 c 2
 356 750 l 1
 544 750 l 1
 544 562 l 2
 544 492 517 425 472 375 c 1
 517 325 544 258 544 188 c 2
 544 0 l 1
 356 0 l 1xb8
EndSplineSet
Validated: 1
EndChar

StartChar: L
Encoding: 76 76 14
Width: 540
VWidth: 1815
Flags: W
HStem: 0 188<262 450> 730 20G<75 262>
VStem: 75 187<188 750>
LayerCount: 2
Fore
SplineSet
262 0 m 1
 75 0 l 1
 75 750 l 1
 262 750 l 1
 262 188 l 1
 450 188 l 1
 450 0 l 1
 262 0 l 1
EndSplineSet
Validated: 1
EndChar

StartChar: M
Encoding: 77 77 15
Width: 915
VWidth: 1815
Flags: W
HStem: 0 21G<75 262 356 544 638 825> 0 21G<75 262 356 544 638 825> 562 188<262 321.828 544 600.289>
VStem: 75 187<0 562> 356 188<0 529.015> 638 187<0 526.246>
CounterMasks: 1 1c
LayerCount: 2
Fore
SplineSet
638 0 m 1xbc
 638 470 l 2
 638 522 596 562 544 562 c 1
 544 470 l 1
 544 0 l 1
 356 0 l 1
 356 470 l 2
 356 522 314 562 262 562 c 1
 262 0 l 1
 75 0 l 1
 75 562 l 1
 75 750 l 1
 262 750 l 1
 544 750 l 2
 698 750 825 624 825 470 c 2
 825 0 l 1
 638 0 l 1xbc
EndSplineSet
Validated: 1
EndChar

StartChar: N
Encoding: 78 78 16
Width: 631
VWidth: 1815
Flags: W
HStem: 0 21G<75 262 356 544> 0 21G<75 262 356 544> 730 20G<75 339>
VStem: 75 187<0 562> 356 188<0 526.246>
LayerCount: 2
Fore
SplineSet
356 0 m 1xb8
 356 470 l 2
 356 522 314 562 262 562 c 1
 262 0 l 1
 75 0 l 1
 75 562 l 1
 75 750 l 1
 262 750 l 2
 416 750 544 624 544 470 c 2
 544 0 l 1
 356 0 l 1xb8
EndSplineSet
Validated: 1
EndChar

StartChar: O
Encoding: 79 79 17
Width: 915
VWidth: 1815
Flags: W
HStem: 0 188<365.437 534.563> 562 188<365.437 534.563>
VStem: 75 187<290.543 459.457> 638 187<290.543 459.457>
LayerCount: 2
Fore
SplineSet
638 375 m 0
 638 477 552 562 450 562 c 0
 348 562 262 477 262 375 c 0
 262 273 348 188 450 188 c 0
 552 188 638 273 638 375 c 0
825 375 m 0
 825 169 656 0 450 0 c 0
 244 0 75 169 75 375 c 0
 75 581 244 750 450 750 c 0
 656 750 825 581 825 375 c 0
EndSplineSet
Validated: 1
EndChar

StartChar: P
Encoding: 80 80 18
Width: 631
VWidth: 1815
Flags: W
HStem: 0 21G<75 262> 0 21G<75 262> 730 20G<75 339>
VStem: 75 187<0 188 375 562> 356 188<411.717 527.63>
LayerCount: 2
Fore
SplineSet
262 375 m 1x38
 314 375 356 418 356 470 c 0
 356 522 314 562 262 562 c 1
 262 375 l 1x38
75 0 m 1xb8
 75 750 l 1
 262 750 l 2
 416 750 544 624 544 470 c 0
 544 316 416 188 262 188 c 1
 262 0 l 1
 75 0 l 1xb8
EndSplineSet
Validated: 1
EndChar

StartChar: Q
Encoding: 81 81 19
Width: 915
VWidth: 1815
Flags: W
HStem: 0 188<365.656 534.782 776 825> 562 188<365.437 534.563>
VStem: 75 187<290.543 459.457> 638 187<289.609 459.457>
LayerCount: 2
Fore
SplineSet
450 188 m 0
 552 188 638 273 638 375 c 0
 638 477 552 562 450 562 c 0
 348 562 262 477 262 375 c 0
 262 273 348 188 450 188 c 0
825 375 m 0
 825 307 809 244 776 188 c 1
 825 188 l 1
 825 0 l 1
 450 0 l 2
 244 0 75 169 75 375 c 0
 75 581 244 750 450 750 c 0
 656 750 825 581 825 375 c 0
EndSplineSet
Validated: 1
EndChar

StartChar: R
Encoding: 82 82 20
Width: 631
VWidth: 1815
Flags: W
HStem: 0 21G<75 262 356 544> 0 21G<75 262 356 544> 730 20G<75 339>
VStem: 75 187<0 188 375 562> 356 188<0 151.846 410.574 527.63>
LayerCount: 2
Fore
SplineSet
262 375 m 1x38
 314 375 356 418 356 470 c 0
 356 522 314 562 262 562 c 1
 262 375 l 1x38
356 0 m 1xb8
 356 94 l 2
 356 146 314 188 262 188 c 1
 262 0 l 1
 75 0 l 1
 75 750 l 1
 262 750 l 2
 416 750 544 624 544 470 c 0
 544 400 517 330 472 280 c 1
 517 230 544 164 544 94 c 2
 544 0 l 1
 356 0 l 1xb8
EndSplineSet
Validated: 1
EndChar

StartChar: S
Encoding: 83 83 21
Width: 631
VWidth: 1815
Flags: W
HStem: 0 188<123 345.813> 562 188<274.163 498>
VStem: 75 187<477.627 551.765> 356 188<197.603 272.919>
LayerCount: 2
Fore
SplineSet
310 280 m 0
 180 280 75 384 75 514 c 0
 75 644 180 750 310 750 c 2
 498 750 l 1
 498 562 l 1
 310 562 l 2
 284 562 262 540 262 514 c 0
 262 488 284 470 310 470 c 0
 440 470 544 366 544 236 c 0
 544 106 440 0 310 0 c 2
 123 0 l 1
 123 188 l 1
 310 188 l 2
 336 188 356 210 356 236 c 0
 356 262 336 280 310 280 c 0
EndSplineSet
Validated: 1
EndChar

StartChar: T
Encoding: 84 84 22
Width: 727
VWidth: 1815
Flags: W
HStem: 0 21G<262 450> 0 21G<262 450> 562 188<75 262 450 638>
VStem: 262 188<0 562>
LayerCount: 2
Fore
SplineSet
262 0 m 1xb0
 262 562 l 1
 75 562 l 1
 75 750 l 1
 638 750 l 1
 638 562 l 1
 450 562 l 1
 450 0 l 1
 262 0 l 1xb0
EndSplineSet
Validated: 1
EndChar

StartChar: U
Encoding: 85 85 23
Width: 631
VWidth: 1815
Flags: W
HStem: 0 21G<279 544> 0 21G<279 544> 730 20G<75 262 356 544>
VStem: 75 187<223.754 750> 356 188<188 750>
LayerCount: 2
Fore
SplineSet
262 750 m 1xb8
 262 280 l 2
 262 228 304 188 356 188 c 1
 356 750 l 1
 544 750 l 1
 544 188 l 1
 544 0 l 1
 356 0 l 2
 202 0 75 126 75 280 c 2
 75 750 l 1
 262 750 l 1xb8
EndSplineSet
Validated: 1
EndChar

StartChar: V
Encoding: 86 86 24
Width: 631
VWidth: 1815
Flags: W
HStem: 0 21G<75 339> 0 21G<75 339> 730 20G<75 262 356 544>
VStem: 75 187<188 750> 356 188<223.754 750>
LayerCount: 2
Fore
SplineSet
262 0 m 2xb8
 75 0 l 1
 75 188 l 1
 75 750 l 1
 262 750 l 1
 262 188 l 1
 314 188 356 228 356 280 c 2
 356 750 l 1
 544 750 l 1
 544 280 l 2
 544 126 416 0 262 0 c 2xb8
EndSplineSet
Validated: 1
EndChar

StartChar: W
Encoding: 87 87 25
Width: 915
VWidth: 1815
Flags: W
HStem: 0 188<299.711 356 578.172 638> 730 20G<75 262 356 544 638 825>
VStem: 75 187<223.754 750> 356 188<220.985 750> 638 187<188 750>
CounterMasks: 1 38
LayerCount: 2
Fore
SplineSet
262 750 m 1
 262 280 l 2
 262 228 304 188 356 188 c 1
 356 280 l 1
 356 750 l 1
 544 750 l 1
 544 280 l 2
 544 228 586 188 638 188 c 1
 638 750 l 1
 825 750 l 1
 825 188 l 1
 825 0 l 1
 638 0 l 1
 356 0 l 2
 202 0 75 126 75 280 c 2
 75 750 l 1
 262 750 l 1
EndSplineSet
Validated: 1
EndChar

StartChar: X
Encoding: 88 88 26
Width: 727
VWidth: 1815
Flags: W
HStem: 0 21G<75 262 450 638> 0 21G<75 262 450 638> 280 282<296.172 415.828> 730 20G<75 262 450 638>
VStem: 75 187<0 246.139 598.075 750> 450 188<0 246.139 598.075 750>
LayerCount: 2
Fore
SplineSet
75 656 m 2xbc
 75 750 l 1
 262 750 l 1
 262 656 l 2
 262 604 304 562 356 562 c 0
 408 562 450 604 450 656 c 2
 450 750 l 1
 638 750 l 1
 638 656 l 2
 638 558 588 473 513 423 c 1
 588 373 638 286 638 188 c 2
 638 0 l 1
 450 0 l 1
 450 188 l 2
 450 240 408 280 356 280 c 0
 304 280 262 240 262 188 c 2
 262 0 l 1
 75 0 l 1
 75 188 l 2
 75 286 125 373 200 423 c 1
 125 473 75 558 75 656 c 2xbc
EndSplineSet
Validated: 1
EndChar

StartChar: Y
Encoding: 89 89 27
Width: 727
VWidth: 1815
Flags: W
HStem: 0 375<296.172 415.828> 730 20G<75 262 450 638>
VStem: 75 187<414.104 750> 262 188<0 214.205> 450 188<414.104 750>
LayerCount: 2
Fore
SplineSet
262 0 m 1xd0
 262 206 l 1xd0
 152 246 75 347 75 470 c 2
 75 750 l 1
 262 750 l 1
 262 470 l 2
 262 418 304 375 356 375 c 0
 408 375 450 418 450 470 c 2
 450 750 l 1
 638 750 l 1
 638 470 l 2xe8
 638 347 560 246 450 206 c 1
 450 0 l 1
 262 0 l 1xd0
EndSplineSet
Validated: 1
EndChar

StartChar: Z
Encoding: 90 90 28
Width: 540
VWidth: 1815
Flags: W
HStem: 0 188<262 450> 562 188<75 262>
VStem: 75 375<0 188 562 750>
LayerCount: 2
Fore
SplineSet
75 750 m 1
 262 750 l 1
 450 750 l 1
 450 514 l 2
 450 384 392 280 262 280 c 1
 262 188 l 1
 450 188 l 1
 450 0 l 1
 262 0 l 1
 75 0 l 1
 75 236 l 2
 75 366 132 470 262 470 c 1
 262 562 l 1
 75 562 l 1
 75 750 l 1
EndSplineSet
Validated: 1
EndChar

StartChar: c
Encoding: 99 99 30
Width: 540
VWidth: 1800
Flags: W
HStem: 0 188<299.711 450> 375 187<299.711 450>
VStem: 75 187<222.37 338.283>
LayerCount: 2
Fore
SplineSet
356 188 m 2
 450 188 l 1
 450 0 l 1
 356 0 l 2
 202 0 75 126 75 280 c 0
 75 434 202 562 356 562 c 2
 450 562 l 1
 450 375 l 1
 356 375 l 2
 304 375 262 332 262 280 c 0
 262 228 304 188 356 188 c 2
EndSplineSet
Validated: 1
EndChar

StartChar: d
Encoding: 100 100 31
Width: 631
VWidth: 1800
Flags: W
HStem: 0 21G<279 544> 0 21G<279 544> 730 20G<356 544>
VStem: 75 187<222.37 338.283> 356 188<188 375 562 750>
LayerCount: 2
Fore
SplineSet
356 188 m 1x38
 356 375 l 1
 304 375 262 332 262 280 c 0
 262 228 304 188 356 188 c 1x38
356 0 m 2xb8
 202 0 75 126 75 280 c 0
 75 434 202 562 356 562 c 1
 356 750 l 1
 544 750 l 1
 544 0 l 1
 356 0 l 2xb8
EndSplineSet
Validated: 1
EndChar

StartChar: e
Encoding: 101 101 32
Width: 631
VWidth: 1815
Flags: W
HStem: 0 188<299.711 450> 280 282<266.336 412.332>
LayerCount: 2
Fore
SplineSet
356 188 m 2
 450 188 l 1
 450 0 l 1
 356 0 l 2
 202 0 75 126 75 280 c 0
 75 434 202 562 356 562 c 0
 510 562 638 434 638 280 c 1
 262 280 l 1
 262 228 304 188 356 188 c 2
EndSplineSet
Validated: 1
EndChar

StartChar: f
Encoding: 102 102 33
Width: 540
VWidth: 1815
Flags: W
HStem: 0 21G<75 262> 0 21G<75 262> 188 187<262 450> 562 188<299.711 450>
VStem: 75 187<0 188 375 526.246>
LayerCount: 2
Fore
SplineSet
75 0 m 1xb8
 75 470 l 2
 75 624 202 750 356 750 c 2
 450 750 l 1
 450 562 l 1
 356 562 l 2
 304 562 262 522 262 470 c 2
 262 375 l 1
 450 375 l 1
 450 188 l 1
 262 188 l 1
 262 0 l 1
 75 0 l 1xb8
EndSplineSet
Validated: 1
EndChar

StartChar: g
Encoding: 103 103 34
Width: 727
VWidth: 1327
Flags: W
HStem: 375 187<297.941 414.08>
VStem: 75 187<222.37 338.283> 450 188<220.985 336.332>
LayerCount: 2
Fore
SplineSet
638 94 m 2
 638 -60 510 -188 356 -188 c 2
 262 -188 l 1
 262 0 l 1
 356 0 l 1
 202 0 75 126 75 280 c 0
 75 434 202 562 356 562 c 0
 510 562 638 434 638 280 c 2
 638 94 l 2
356 188 m 0
 408 188 450 228 450 280 c 0
 450 332 408 375 356 375 c 0
 304 375 262 332 262 280 c 0
 262 228 304 188 356 188 c 0
EndSplineSet
Validated: 1
EndChar

StartChar: h
Encoding: 104 104 35
Width: 631
VWidth: 1815
Flags: W
HStem: 0 21G<75 262 356 544> 0 21G<75 262 356 544> 730 20G<75 262>
VStem: 75 187<0 375 562 750> 356 188<0 336.332>
LayerCount: 2
Fore
SplineSet
356 0 m 1xb8
 356 280 l 2
 356 332 314 375 262 375 c 1
 262 0 l 1
 75 0 l 1
 75 750 l 1
 262 750 l 1
 262 562 l 1
 416 562 544 434 544 280 c 2
 544 0 l 1
 356 0 l 1xb8
EndSplineSet
Validated: 1
EndChar

StartChar: i
Encoding: 105 105 36
Width: 352
VWidth: 1815
Flags: W
HStem: 0 21G<75 262> 0 21G<75 262> 562 188<75 262>
VStem: 75 187<0 375 562 750>
LayerCount: 2
Fore
SplineSet
262 562 m 1x30
 75 562 l 1
 75 750 l 1
 262 750 l 1
 262 562 l 1x30
262 0 m 1xb0
 75 0 l 1
 75 375 l 1
 262 375 l 1
 262 0 l 1xb0
EndSplineSet
Validated: 1
EndChar

StartChar: j
Encoding: 106 106 37
Width: 540
VWidth: 1815
Flags: W
HStem: -188 188<75 226.246> 562 188<262 450>
VStem: 262 188<37.668 375 562 750>
LayerCount: 2
Fore
SplineSet
262 562 m 1
 262 750 l 1
 450 750 l 1
 450 562 l 1
 262 562 l 1
170 -188 m 2
 75 -188 l 1
 75 0 l 1
 170 0 l 2
 222 0 262 42 262 94 c 2
 262 375 l 1
 450 375 l 1
 450 94 l 2
 450 -60 324 -188 170 -188 c 2
EndSplineSet
Validated: 1
EndChar

StartChar: k
Encoding: 107 107 38
Width: 631
VWidth: 1815
Flags: W
HStem: 0 21G<75 262 356 544> 0 21G<75 262 356 544> 542 20G<356 544> 730 20G<75 262>
VStem: 75 187<0 280 470 750> 356 188<0 246.039 503.961 562>
LayerCount: 2
Fore
SplineSet
356 0 m 1xbc
 356 188 l 2
 356 240 314 280 262 280 c 1
 262 0 l 1
 75 0 l 1
 75 750 l 1
 262 750 l 1
 262 470 l 1
 314 470 356 510 356 562 c 1
 544 562 l 1
 544 492 517 425 472 375 c 1
 517 325 544 258 544 188 c 2
 544 0 l 1
 356 0 l 1xbc
EndSplineSet
Validated: 1
EndChar

StartChar: l
Encoding: 108 108 39
Width: 540
VWidth: 1815
Flags: W
HStem: 0 188<299.711 450> 730 20G<75 262>
VStem: 75 187<223.754 750>
LayerCount: 2
Fore
SplineSet
75 280 m 2
 75 750 l 1
 262 750 l 1
 262 280 l 2
 262 228 304 188 356 188 c 2
 450 188 l 1
 450 0 l 1
 356 0 l 2
 202 0 75 126 75 280 c 2
EndSplineSet
Validated: 1
EndChar

StartChar: m
Encoding: 109 109 40
Width: 915
VWidth: 1815
Flags: W
HStem: 0 21G<75 262 356 544 638 825> 0 21G<75 262 356 544 638 825> 375 187<262 321.828 544 600.289>
VStem: 75 187<0 375> 356 188<0 340.235> 638 187<0 336.332>
CounterMasks: 1 1c
LayerCount: 2
Fore
SplineSet
638 0 m 1xbc
 638 280 l 2
 638 332 596 375 544 375 c 1
 544 282 l 1
 544 280 l 1
 544 0 l 1
 356 0 l 1
 356 280 l 2
 356 332 314 375 262 375 c 1
 262 0 l 1
 75 0 l 1
 75 562 l 1
 262 562 l 1
 356 562 l 1
 544 562 l 2
 698 562 825 434 825 280 c 2
 825 0 l 1
 638 0 l 1xbc
EndSplineSet
Validated: 1
EndChar

StartChar: n
Encoding: 110 110 41
Width: 631
VWidth: 1815
Flags: W
HStem: 0 21G<75 262 356 544> 0 21G<75 262 356 544> 542 20G<75 339>
VStem: 75 187<0 375> 356 188<0 336.332>
LayerCount: 2
Fore
SplineSet
356 0 m 1xb8
 356 280 l 2
 356 332 314 375 262 375 c 1
 262 0 l 1
 75 0 l 1
 75 562 l 1
 262 562 l 2
 416 562 544 434 544 280 c 2
 544 0 l 1
 356 0 l 1xb8
EndSplineSet
Validated: 1
EndChar

StartChar: o
Encoding: 111 111 42
Width: 727
VWidth: 1815
Flags: W
HStem: 0 188<297.941 414.08> 375 187<297.941 414.08>
VStem: 75 187<222.37 338.283> 450 188<222.37 338.283>
LayerCount: 2
Fore
SplineSet
356 188 m 0
 408 188 450 228 450 280 c 0
 450 332 408 375 356 375 c 0
 304 375 262 332 262 280 c 0
 262 228 304 188 356 188 c 0
356 0 m 0
 202 0 75 126 75 280 c 0
 75 434 202 562 356 562 c 0
 510 562 638 434 638 280 c 0
 638 126 510 0 356 0 c 0
EndSplineSet
Validated: 1
EndChar

StartChar: p
Encoding: 112 112 43
Width: 631
VWidth: 2115
Flags: W
HStem: 542 20G<75 339>
VStem: 75 187<-188 0 188 375> 356 188<222.37 338.283>
LayerCount: 2
Fore
SplineSet
75 -188 m 1
 75 562 l 1
 262 562 l 2
 416 562 544 434 544 280 c 0
 544 126 416 0 262 0 c 1
 262 -188 l 1
 75 -188 l 1
262 188 m 1
 314 188 356 228 356 280 c 0
 356 332 314 375 262 375 c 1
 262 188 l 1
EndSplineSet
Validated: 1
EndChar

StartChar: q
Encoding: 113 113 44
Width: 631
VWidth: 1815
Flags: W
HStem: 542 20G<279 544>
VStem: 75 187<222.37 338.283> 356 188<-188 0 188 375>
LayerCount: 2
Fore
SplineSet
544 -188 m 1
 356 -188 l 1
 356 0 l 1
 202 0 75 126 75 280 c 0
 75 434 202 562 356 562 c 2
 544 562 l 1
 544 -188 l 1
356 188 m 1
 356 375 l 1
 304 375 262 332 262 280 c 0
 262 228 304 188 356 188 c 1
EndSplineSet
Validated: 1
EndChar

StartChar: r
Encoding: 114 114 45
Width: 540
VWidth: 1815
Flags: W
HStem: 0 21G<75 262> 0 21G<75 262> 375 187<299.711 450>
VStem: 75 187<0 336.332>
LayerCount: 2
Fore
SplineSet
356 375 m 2xb0
 304 375 262 332 262 280 c 2
 262 0 l 1
 75 0 l 1
 75 280 l 2
 75 434 202 562 356 562 c 2
 450 562 l 1
 450 375 l 1
 356 375 l 2xb0
EndSplineSet
Validated: 1
EndChar

StartChar: s
Encoding: 115 115 46
Width: 540
VWidth: 1815
Flags: W
HStem: -20 190<75 262> 356 188<262 450>
LayerCount: 2
Fore
SplineSet
262 544 m 2
 450 544 l 1
 450 356 l 1
 262 356 l 1
 364 356 450 272 450 170 c 0
 450 68 364 -20 262 -20 c 2
 75 -20 l 1
 75 170 l 1
 262 170 l 1
 160 170 75 254 75 356 c 0
 75 458 160 544 262 544 c 2
EndSplineSet
Validated: 1
EndChar

StartChar: t
Encoding: 116 116 47
Width: 540
VWidth: 1815
Flags: W
HStem: 0 188<299.711 450> 375 187<262 450> 730 20G<75 262>
VStem: 75 187<223.754 375 562 750>
LayerCount: 2
Fore
SplineSet
262 375 m 1
 262 280 l 2
 262 228 304 188 356 188 c 2
 450 188 l 1
 450 0 l 1
 356 0 l 2
 202 0 75 126 75 280 c 2
 75 750 l 1
 262 750 l 1
 262 562 l 1
 450 562 l 1
 450 375 l 1
 262 375 l 1
EndSplineSet
Validated: 1
EndChar

StartChar: u
Encoding: 117 117 48
Width: 631
VWidth: 1815
Flags: W
HStem: 0 21G<279 544> 0 21G<279 544> 542 20G<75 262 356 544>
VStem: 75 187<223.754 562> 356 188<188 562>
LayerCount: 2
Fore
SplineSet
262 562 m 1xb8
 262 280 l 2
 262 228 304 188 356 188 c 1
 356 562 l 1
 544 562 l 1
 544 0 l 1
 356 0 l 2
 202 0 75 126 75 280 c 2
 75 562 l 1
 262 562 l 1xb8
EndSplineSet
Validated: 1
EndChar

StartChar: v
Encoding: 118 118 49
Width: 631
VWidth: 1815
Flags: W
HStem: 0 21G<75 339> 0 21G<75 339> 542 20G<75 262 356 544>
VStem: 75 187<188 562> 356 188<223.754 562>
LayerCount: 2
Fore
SplineSet
75 0 m 1xb8
 75 562 l 1
 262 562 l 1
 262 188 l 1
 314 188 356 228 356 280 c 2
 356 562 l 1
 544 562 l 1
 544 280 l 2
 544 126 416 0 262 0 c 2
 75 0 l 1xb8
EndSplineSet
Validated: 1
EndChar

StartChar: w
Encoding: 119 119 50
Width: 915
VWidth: 1815
Flags: W
HStem: 0 188<299.711 356 578.172 638> 542 20G<75 262 356 544 638 825>
VStem: 75 187<223.754 562> 356 188<220.985 562> 638 187<188 562>
CounterMasks: 1 38
LayerCount: 2
Fore
SplineSet
262 562 m 1
 262 280 l 2
 262 228 304 188 356 188 c 1
 356 280 l 1
 356 562 l 1
 544 562 l 1
 544 280 l 2
 544 228 586 188 638 188 c 1
 638 562 l 1
 825 562 l 1
 825 0 l 1
 638 0 l 1
 544 0 l 1
 356 0 l 2
 202 0 75 126 75 280 c 2
 75 562 l 1
 262 562 l 1
EndSplineSet
Validated: 1
EndChar

StartChar: x
Encoding: 120 120 51
Width: 727
VWidth: 1815
Flags: W
HStem: 0 21G<75 262 450 638> 0 21G<75 262 450 638> 188 282<296.172 415.828> 542 20G<75 262 450 638>
VStem: 75 187<0 151.925 503.861 562> 450 188<0 151.925 503.861 562>
LayerCount: 2
Fore
SplineSet
356 470 m 0xbc
 408 470 450 510 450 562 c 1
 638 562 l 1
 638 464 588 377 513 327 c 1
 588 277 638 192 638 94 c 2
 638 0 l 1
 450 0 l 1
 450 94 l 2
 450 146 408 188 356 188 c 0
 304 188 262 146 262 94 c 2
 262 0 l 1
 75 0 l 1
 75 94 l 2
 75 192 125 277 200 327 c 1
 125 377 75 464 75 562 c 1
 262 562 l 1
 262 510 304 470 356 470 c 0xbc
EndSplineSet
Validated: 1
EndChar

StartChar: z
Encoding: 122 122 52
Width: 540
VWidth: 1815
Flags: W
HStem: 0 188<270 450> 375 187<75 262>
VStem: 75 375<0 188 275 290 375 562>
LayerCount: 2
Fore
SplineSet
450 0 m 1
 262 0 l 1
 75 0 l 1
 75 188 l 2
 75 290 160 375 262 375 c 1
 75 375 l 1
 75 562 l 1
 262 562 l 1
 450 562 l 1
 450 375 l 2
 450 275 370 192 270 188 c 1
 450 188 l 1
 450 0 l 1
EndSplineSet
Validated: 1
EndChar

StartChar: zero
Encoding: 48 48 53
Width: 727
VWidth: 1815
Flags: W
HStem: 0 188<297.941 414.08> 562 188<297.941 414.08>
VStem: 75 187<223.754 526.246> 450 188<223.754 526.246>
LayerCount: 2
Fore
SplineSet
638 280 m 2
 638 126 510 0 356 0 c 0
 202 0 75 126 75 280 c 2
 75 470 l 2
 75 624 202 750 356 750 c 0
 510 750 638 624 638 470 c 2
 638 280 l 2
262 280 m 2
 262 228 304 188 356 188 c 0
 408 188 450 228 450 280 c 2
 450 470 l 2
 450 522 408 562 356 562 c 0
 304 562 262 522 262 470 c 2
 262 280 l 2
EndSplineSet
Validated: 1
EndChar

StartChar: one
Encoding: 49 49 54
Width: 444
VWidth: 1815
Flags: W
HStem: 0 21G<170 356> 0 21G<170 356> 730 20G<75 356>
VStem: 75 281<562 750> 170 186<0 562>
LayerCount: 2
Fore
SplineSet
170 0 m 1xa8
 170 562 l 1xa8
 75 562 l 1
 75 750 l 1xb0
 170 750 l 1xa8
 356 750 l 1xb0
 356 0 l 1
 170 0 l 1xa8
EndSplineSet
Validated: 1
EndChar

StartChar: two
Encoding: 50 50 55
Width: 631
VWidth: 1815
Flags: W
HStem: 0 188<262 544> 562 188<170 318.332>
VStem: 356 188<411.717 527.63>
LayerCount: 2
Fore
SplineSet
75 0 m 1
 75 188 l 2
 75 290 160 375 262 375 c 0
 314 375 356 418 356 470 c 0
 356 522 314 562 262 562 c 2
 170 562 l 1
 170 750 l 1
 262 750 l 2
 416 750 544 624 544 470 c 0
 544 316 416 188 262 188 c 1
 544 188 l 1
 544 0 l 1
 75 0 l 1
EndSplineSet
Validated: 1
EndChar

StartChar: three
Encoding: 51 51 56
Width: 540
VWidth: 1815
Flags: W
HStem: 0 188<75 226.246> 375 95<170 229.015> 562 188<75 262>
VStem: 262 188<222.37 340.792 502.985 562>
LayerCount: 2
Fore
SplineSet
412 423 m 1
 438 383 450 330 450 280 c 0
 450 126 324 0 170 0 c 2
 75 0 l 1
 75 188 l 1
 170 188 l 2
 222 188 262 228 262 280 c 0
 262 332 222 375 170 375 c 1
 170 470 l 1
 222 470 262 510 262 562 c 1
 75 562 l 1
 75 750 l 1
 450 750 l 1
 450 562 l 2
 450 512 438 463 412 423 c 1
EndSplineSet
Validated: 1
EndChar

StartChar: four
Encoding: 52 52 57
Width: 631
VWidth: 1815
Flags: W
HStem: 0 21G<356 544> 0 21G<356 544> 730 20G<75 262 356 544>
VStem: 75 187<470 750> 356 188<0 280 470 750>
LayerCount: 2
Fore
SplineSet
356 0 m 1xb8
 356 280 l 1
 75 280 l 1
 75 470 l 1
 75 750 l 1
 262 750 l 1
 262 470 l 1
 356 470 l 1
 356 750 l 1
 544 750 l 1
 544 0 l 1
 356 0 l 1xb8
EndSplineSet
Validated: 1
EndChar

StartChar: five
Encoding: 53 53 58
Width: 631
VWidth: 1815
Flags: W
HStem: 0 188<170 318.332> 375 187<262 321.828> 562 188<262 544>
VStem: 356 188<222.37 338.283>
LayerCount: 2
Fore
SplineSet
170 188 m 1xd0
 262 188 l 2
 314 188 356 228 356 280 c 0
 356 332 314 375 262 375 c 0xd0
 160 375 75 460 75 562 c 2
 75 750 l 1
 544 750 l 1
 544 562 l 1xb0
 262 562 l 1
 416 562 544 434 544 280 c 0
 544 126 416 0 262 0 c 2
 170 0 l 1
 170 188 l 1xd0
EndSplineSet
Validated: 1
EndChar

StartChar: six
Encoding: 54 54 59
Width: 727
VWidth: 1815
Flags: W
HStem: 0 188<297.941 414.08> 375 187<296.783 414.08> 730 20G<75 262>
VStem: 75 187<223.754 340.235 544 750> 450 188<222.37 338.283>
LayerCount: 2
Fore
SplineSet
75 280 m 2
 75 750 l 1
 262 750 l 1
 262 544 l 1
 292 554 322 562 356 562 c 0
 510 562 638 434 638 280 c 0
 638 126 510 0 356 0 c 0
 202 0 75 126 75 280 c 2
262 280 m 0
 262 228 304 188 356 188 c 0
 408 188 450 228 450 280 c 0
 450 332 408 375 356 375 c 0
 304 375 262 332 262 280 c 0
EndSplineSet
Validated: 1
EndChar

StartChar: seven
Encoding: 55 55 60
Width: 631
VWidth: 1815
Flags: W
HStem: 0 21G<356 544> 0 21G<356 544> 562 188<75 318.332>
VStem: 356 188<0 526.246>
LayerCount: 2
Fore
SplineSet
356 0 m 1xb0
 356 470 l 2
 356 522 314 562 262 562 c 2
 75 562 l 1
 75 750 l 1
 262 750 l 2
 416 750 544 624 544 470 c 2
 544 0 l 1
 356 0 l 1xb0
EndSplineSet
Validated: 1
EndChar

StartChar: eight
Encoding: 56 56 61
Width: 727
VWidth: 1815
Flags: W
HStem: 0 188<262 450> 280 190<262 450> 562 188<262 450>
VStem: 75 187<188 280 470 562> 450 188<188 280 470 562>
CounterMasks: 1 e0
LayerCount: 2
Fore
SplineSet
450 470 m 1
 450 562 l 1
 262 562 l 1
 262 470 l 1
 450 470 l 1
450 0 m 2
 262 0 l 2
 160 0 75 86 75 188 c 2
 75 562 l 2
 75 664 160 750 262 750 c 2
 450 750 l 2
 552 750 638 664 638 562 c 2
 638 188 l 2
 638 86 552 0 450 0 c 2
450 188 m 1
 450 280 l 1
 262 280 l 1
 262 188 l 1
 450 188 l 1
EndSplineSet
Validated: 1
EndChar

StartChar: nine
Encoding: 57 57 62
Width: 712
VWidth: 1815
Flags: W
HStem: 0 21G<450 638> 0 21G<450 638> 188 187<297.941 415.217> 562 188<297.941 414.08>
VStem: 75 187<411.717 527.63> 450 188<0 206 409.765 526.246>
LayerCount: 2
Fore
SplineSet
450 470 m 0x3c
 450 522 408 562 356 562 c 0
 304 562 262 522 262 470 c 0
 262 418 304 375 356 375 c 0
 408 375 450 418 450 470 c 0x3c
638 470 m 2
 638 0 l 1
 450 0 l 1xbc
 450 206 l 1
 420 196 390 188 356 188 c 0
 202 188 75 316 75 470 c 0
 75 624 202 750 356 750 c 0
 510 750 638 624 638 470 c 2
EndSplineSet
Validated: 1
EndChar

StartChar: exclam
Encoding: 33 33 63
Width: 352
VWidth: 1515
Flags: W
HStem: 0 188<75 262> 730 20G<75 262>
VStem: 75 187<0 188 280 750>
LayerCount: 2
Fore
SplineSet
75 280 m 1
 75 750 l 1
 262 750 l 1
 262 280 l 1
 75 280 l 1
75 0 m 1
 75 188 l 1
 262 188 l 1
 262 0 l 1
 75 0 l 1
EndSplineSet
Validated: 1
EndChar

StartChar: braceleft
Encoding: 123 123 64
Width: 540
VWidth: 1815
Flags: W
HStem: 0 21G<305 450> 0 21G<305 450> 730 20G<305 450>
VStem: 170 186<188 280 470 562>
LayerCount: 2
Fore
SplineSet
450 0 m 1xb0
 356 0 l 2
 254 0 170 86 170 188 c 2
 170 280 l 1
 118 280 75 323 75 375 c 0
 75 427 118 470 170 470 c 1
 170 562 l 2
 170 664 254 750 356 750 c 2
 450 750 l 1
 450 562 l 1
 356 562 l 1
 356 188 l 1
 450 188 l 1
 450 0 l 1xb0
EndSplineSet
Validated: 1
EndChar

StartChar: braceright
Encoding: 125 125 65
Width: 540
VWidth: 1815
Flags: W
HStem: 0 21G<75 221> 0 21G<75 221> 730 20G<75 221>
VStem: 170 186<188 280 470 562>
LayerCount: 2
Fore
SplineSet
170 0 m 2xb0
 75 0 l 1
 75 188 l 1
 170 188 l 1
 170 562 l 1
 75 562 l 1
 75 750 l 1
 170 750 l 2
 272 750 356 664 356 562 c 2
 356 470 l 1
 408 470 450 427 450 375 c 0
 450 323 408 280 356 280 c 1
 356 188 l 2
 356 86 272 0 170 0 c 2xb0
EndSplineSet
Validated: 1
EndChar

StartChar: bracketleft
Encoding: 91 91 66
Width: 444
VWidth: 1815
Flags: W
HStem: 0 21G<75 356> 0 21G<75 356> 730 20G<75 356>
VStem: 75 281<0 188 562 750> 75 187<188 562>
LayerCount: 2
Fore
SplineSet
356 0 m 1xb0
 75 0 l 1
 75 188 l 1
 75 562 l 1
 75 750 l 1
 356 750 l 1
 356 562 l 1xb0
 262 562 l 1
 262 188 l 1xa8
 356 188 l 1
 356 0 l 1xb0
EndSplineSet
Validated: 1
EndChar

StartChar: bracketright
Encoding: 93 93 67
Width: 444
VWidth: 1815
Flags: W
HStem: 0 21G<75 356> 0 21G<75 356> 730 20G<75 356>
VStem: 75 281<0 188 562 750> 170 186<188 562>
LayerCount: 2
Fore
SplineSet
75 0 m 1xb0
 75 188 l 1xb0
 170 188 l 1
 170 562 l 1xa8
 75 562 l 1
 75 750 l 1
 356 750 l 1
 356 562 l 1
 356 188 l 1
 356 0 l 1
 75 0 l 1xb0
EndSplineSet
Validated: 1
EndChar

StartChar: period
Encoding: 46 46 68
Width: 352
VWidth: 1815
Flags: W
HStem: 0 188<109.765 229.015>
VStem: 75 187<34.1719 153.828>
LayerCount: 2
Fore
SplineSet
75 94 m 0
 75 146 118 188 170 188 c 0
 222 188 262 146 262 94 c 0
 262 42 222 0 170 0 c 0
 118 0 75 42 75 94 c 0
EndSplineSet
Validated: 1
EndChar

StartChar: parenright
Encoding: 41 41 69
Width: 444
VWidth: 2134
Flags: W
HStem: 0 21G<75 293.5> 0 21G<75 293.5> 730 20G<75 293.5>
VStem: 170 186<208.744 541.256>
LayerCount: 2
Fore
SplineSet
75 750 m 1xb0
 262 750 l 1
 325 608 356 491 356 375 c 0
 356 259 325 142 262 0 c 1
 75 0 l 1
 138 142 170 259 170 375 c 0
 170 491 138 608 75 750 c 1xb0
EndSplineSet
Validated: 1
EndChar

StartChar: quotedbl
Encoding: 34 34 70
Width: 727
VWidth: 2134
Flags: W
HStem: 470 280<75 262 450 638>
VStem: 75 187<470 750> 450 188<470 750>
LayerCount: 2
Fore
SplineSet
450 470 m 1
 450 750 l 1
 638 750 l 1
 638 470 l 1
 450 470 l 1
75 470 m 1
 75 750 l 1
 262 750 l 1
 262 470 l 1
 75 470 l 1
EndSplineSet
Validated: 1
EndChar

StartChar: quotesingle
Encoding: 39 39 71
Width: 352
VWidth: 2134
Flags: W
HStem: 470 280<75 262>
VStem: 75 187<470 750>
LayerCount: 2
Fore
SplineSet
75 470 m 1
 75 750 l 1
 262 750 l 1
 262 470 l 1
 75 470 l 1
EndSplineSet
Validated: 1
EndChar

StartChar: parenleft
Encoding: 40 40 72
Width: 444
VWidth: 1834
Flags: W
HStem: 0 21G<138.5 356> 0 21G<138.5 356> 730 20G<138.5 356>
VStem: 75 187<208.744 541.256>
LayerCount: 2
Fore
SplineSet
356 750 m 1xb0
 293 608 262 491 262 375 c 0
 262 259 293 142 356 0 c 1
 170 0 l 1
 107 142 75 259 75 375 c 0
 75 491 107 608 170 750 c 1
 356 750 l 1xb0
EndSplineSet
Validated: 1
EndChar

StartChar: numbersign
Encoding: 35 35 73
Width: 804
VWidth: 1515
Flags: W
HStem: 0 21G<170 356 450 638> 0 21G<170 356 450 638> 94 186<75 170 356 450 638 730> 470 186<75 170 356 450 638 730> 730 20G<170 356 450 638>
VStem: 170 186<0 94 280 470 656 750> 450 188<0 94 280 470 656 750>
LayerCount: 2
Fore
SplineSet
450 280 m 1x3e
 450 470 l 1
 356 470 l 1
 356 280 l 1
 450 280 l 1x3e
638 94 m 1
 638 0 l 1
 450 0 l 1
 450 94 l 1
 356 94 l 1
 356 0 l 1
 170 0 l 1xbe
 170 94 l 1
 75 94 l 1
 75 280 l 1
 170 280 l 1
 170 470 l 1
 75 470 l 1
 75 656 l 1
 170 656 l 1
 170 750 l 1
 356 750 l 1
 356 656 l 1
 450 656 l 1
 450 750 l 1
 638 750 l 1
 638 656 l 1
 730 656 l 1
 730 470 l 1
 638 470 l 1
 638 280 l 1
 730 280 l 1
 730 94 l 1
 638 94 l 1
EndSplineSet
Validated: 1
EndChar

StartChar: dollar
Encoding: 36 36 74
Width: 616
VWidth: 1534
Flags: W
HStem: 0 188<123 262> 562 188<356 498>
VStem: 262 94<-94 0 750 844>
LayerCount: 2
Fore
SplineSet
262 844 m 1
 356 844 l 1
 356 750 l 1
 498 750 l 1
 498 562 l 1
 498 562 413 562 357 562 c 0
 330 562 310 562 310 562 c 2
 284 562 262 540 262 514 c 0
 262 488 284 470 310 470 c 0
 440 470 544 366 544 236 c 0
 544 124 464 26 356 4 c 1
 356 -94 l 1
 262 -94 l 1
 262 0 l 1
 123 0 l 1
 123 188 l 1
 123 188 204 188 260 188 c 0
 287 188 310 188 310 188 c 2
 336 188 356 210 356 236 c 0
 356 262 336 280 310 280 c 0
 180 280 75 384 75 514 c 0
 75 626 154 724 262 746 c 1
 262 844 l 1
EndSplineSet
Validated: 1
EndChar

StartChar: percent
Encoding: 37 37 75
Width: 991
VWidth: 1515
Flags: W
HStem: 0 94<737.653 816.867> 188 92<738.263 816.235> 470 92<177.958 253.196> 656 94<177.413 253.828>
VStem: 75 95<568.293 649.301> 262 94<570.882 648.434> 638 92<101.266 179.439> 825 95<101.566 179.118>
LayerCount: 2
Fore
SplineSet
777 188 m 0
 751 188 730 166 730 140 c 0
 730 114 751 94 777 94 c 0
 803 94 825 114 825 140 c 0
 825 166 803 188 777 188 c 0
777 280 m 0
 855 280 920 218 920 140 c 0
 920 62 855 0 777 0 c 0
 699 0 638 62 638 140 c 0
 638 218 699 280 777 280 c 0
214 656 m 0
 188 656 170 636 170 610 c 0
 170 584 188 562 214 562 c 0
 240 562 262 584 262 610 c 0
 262 636 240 656 214 656 c 0
214 750 m 0
 292 750 356 688 356 610 c 0
 356 532 292 470 214 470 c 0
 136 470 75 532 75 610 c 0
 75 688 136 750 214 750 c 0
544 750 m 1
 730 750 l 1
 450 0 l 1
 262 0 l 1
 544 750 l 1
EndSplineSet
Validated: 1
EndChar

StartChar: ampersand
Encoding: 38 38 76
Width: 804
VWidth: 1534
Flags: W
HStem: 0 188<299.711 450 638 730> 280 190<298.776 450> 562 188<262 496.374>
VStem: 75 187<223.754 280 506.594 562>
CounterMasks: 1 e0
LayerCount: 2
Fore
SplineSet
262 280 m 1
 262 228 304 188 356 188 c 2
 450 188 l 1
 450 280 l 1
 262 280 l 1
262 750 m 2
 450 750 l 2
 552 750 638 664 638 562 c 1
 450 562 l 1
 262 562 l 1
 262 512 306 473 356 470 c 2
 450 470 l 2
 552 470 638 382 638 280 c 2
 638 188 l 1
 730 188 l 1
 730 0 l 1
 450 0 l 1
 356 0 l 2
 202 0 75 126 75 280 c 0
 75 330 86 383 112 423 c 1
 86 463 75 512 75 562 c 0
 75 664 160 750 262 750 c 2
EndSplineSet
Validated: 1
EndChar

StartChar: asterisk
Encoding: 42 42 77
Width: 712
VWidth: 1515
Flags: W
HStem: 423 91<75 244 470 638> 730 20G<310 402>
VStem: 310 92<188 356 580 750>
LayerCount: 2
Fore
SplineSet
590 304 m 1
 520 236 l 1
 402 356 l 1
 402 188 l 1
 310 188 l 1
 310 356 l 1
 190 236 l 1
 124 304 l 1
 244 423 l 1
 75 423 l 1
 75 514 l 1
 244 514 l 1
 124 634 l 1
 190 700 l 1
 310 580 l 1
 310 750 l 1
 402 750 l 1
 402 580 l 1
 520 700 l 1
 590 634 l 1
 470 514 l 1
 638 514 l 1
 638 423 l 1
 470 423 l 1
 590 304 l 1
EndSplineSet
Validated: 1
EndChar

StartChar: plus
Encoding: 43 43 78
Width: 712
VWidth: 1534
Flags: W
HStem: 280 190<75 262 450 638>
VStem: 262 188<94 280 470 656>
LayerCount: 2
Fore
SplineSet
262 656 m 1
 450 656 l 1
 450 470 l 1
 638 470 l 1
 638 280 l 1
 450 280 l 1
 450 94 l 1
 262 94 l 1
 262 280 l 1
 75 280 l 1
 75 470 l 1
 262 470 l 1
 262 656 l 1
EndSplineSet
Validated: 1
EndChar

StartChar: comma
Encoding: 44 44 79
Width: 337
VWidth: 1515
Flags: W
VStem: 75 187<-188 188>
LayerCount: 2
Fore
SplineSet
75 -188 m 1
 75 188 l 1
 262 188 l 1
 262 -188 l 1
 75 -188 l 1
EndSplineSet
Validated: 1
EndChar

StartChar: hyphen
Encoding: 45 45 80
Width: 712
VWidth: 1515
Flags: W
HStem: 280 190<75 638>
LayerCount: 2
Fore
SplineSet
75 280 m 1
 75 470 l 1
 638 470 l 1
 638 280 l 1
 75 280 l 1
EndSplineSet
Validated: 1
EndChar

StartChar: slash
Encoding: 47 47 81
Width: 616
VWidth: 1515
Flags: W
HStem: 0 21G<75 269.52> 0 21G<75 269.52> 730 20G<348.507 544>
LayerCount: 2
Fore
SplineSet
356 750 m 1xa0
 544 750 l 1
 262 0 l 1
 75 0 l 1
 356 750 l 1xa0
EndSplineSet
Validated: 1
EndChar

StartChar: colon
Encoding: 58 58 82
Width: 337
VWidth: 1515
Flags: W
HStem: 94 186<109.765 229.015> 470 186<109.765 229.015>
VStem: 75 187<128.172 247.015 502.985 621.828>
LayerCount: 2
Fore
SplineSet
75 562 m 0
 75 614 118 656 170 656 c 0
 222 656 262 614 262 562 c 0
 262 510 222 470 170 470 c 0
 118 470 75 510 75 562 c 0
75 188 m 0
 75 240 118 280 170 280 c 0
 222 280 262 240 262 188 c 0
 262 136 222 94 170 94 c 0
 118 94 75 136 75 188 c 0
EndSplineSet
Validated: 1
EndChar

StartChar: semicolon
Encoding: 59 59 83
Width: 337
VWidth: 1515
Flags: W
HStem: 0 21G<75 262> 0 21G<75 262> 470 186<109.765 229.015>
VStem: 75 187<0 375 502.985 621.828>
LayerCount: 2
Fore
SplineSet
75 0 m 1xb0
 75 375 l 1
 262 375 l 1
 262 0 l 1
 75 0 l 1xb0
75 562 m 0
 75 614 118 656 170 656 c 0
 222 656 262 614 262 562 c 0
 262 510 222 470 170 470 c 0
 118 470 75 510 75 562 c 0
EndSplineSet
Validated: 1
EndChar

StartChar: less
Encoding: 60 60 84
Width: 616
VWidth: 1515
Flags: W
LayerCount: 2
Fore
SplineSet
356 94 m 1
 75 375 l 1
 356 656 l 1
 544 656 l 1
 262 375 l 1
 544 94 l 1
 356 94 l 1
EndSplineSet
Validated: 1
EndChar

StartChar: equal
Encoding: 61 61 85
Width: 616
VWidth: 1515
Flags: W
HStem: 94 186<75 544> 470 186<75 544>
VStem: 75 469<94 280 470 656>
LayerCount: 2
Fore
SplineSet
75 280 m 1
 544 280 l 1
 544 94 l 1
 75 94 l 1
 75 280 l 1
75 656 m 1
 544 656 l 1
 544 470 l 1
 75 470 l 1
 75 656 l 1
EndSplineSet
Validated: 1
EndChar

StartChar: greater
Encoding: 62 62 86
Width: 616
VWidth: 1515
Flags: W
LayerCount: 2
Fore
SplineSet
262 656 m 1
 544 375 l 1
 262 94 l 1
 75 94 l 1
 356 375 l 1
 75 656 l 1
 262 656 l 1
EndSplineSet
Validated: 1
EndChar

StartChar: question
Encoding: 63 63 87
Width: 712
VWidth: 1515
Flags: W
HStem: 0 188<262 450> 562 188<297.941 414.08>
VStem: 262 188<0 188>
LayerCount: 2
Fore
SplineSet
356 562 m 0
 304 562 262 522 262 470 c 1
 75 470 l 1
 75 624 202 750 356 750 c 0
 510 750 638 624 638 470 c 0
 638 368 552 280 450 280 c 2
 356 280 l 1
 356 470 l 1
 450 470 l 1
 450 522 408 562 356 562 c 0
262 0 m 1
 262 188 l 1
 450 188 l 1
 450 0 l 1
 262 0 l 1
EndSplineSet
Validated: 1
EndChar

StartChar: at
Encoding: 64 64 88
Width: 991
VWidth: 1515
Flags: W
HStem: 0 188<487.668 544 730 825> 542 20G<467 730> 656 94<426.463 825>
VStem: 75 95<0 397.603> 262 188<222.37 338.283> 544 186<188 375> 825 95<188 656>
LayerCount: 2
Fore
SplineSet
544 188 m 1
 544 375 l 1
 492 375 450 332 450 280 c 0
 450 228 492 188 544 188 c 1
75 0 m 1
 75 280 l 2
 75 540 284 750 544 750 c 2
 825 750 l 1
 920 750 l 1
 920 0 l 1
 825 0 l 1
 730 0 l 1
 544 0 l 2
 390 0 262 126 262 280 c 0
 262 434 390 562 544 562 c 2
 730 562 l 1
 730 188 l 1
 825 188 l 1
 825 656 l 1
 544 656 l 2
 338 656 170 486 170 280 c 2
 170 0 l 1
 75 0 l 1
EndSplineSet
Validated: 1
EndChar

StartChar: backslash
Encoding: 92 92 89
Width: 616
VWidth: 1515
Flags: W
HStem: 0 21G<348.507 544> 0 21G<348.507 544> 730 20G<75 269.52>
LayerCount: 2
Fore
SplineSet
262 750 m 1xa0
 544 0 l 1
 356 0 l 1
 75 750 l 1
 262 750 l 1xa0
EndSplineSet
Validated: 1
EndChar

StartChar: asciicircum
Encoding: 94 94 90
Width: 525
VWidth: 1515
Flags: W
HStem: 730 20G<242.106 282>
LayerCount: 2
Fore
SplineSet
75 562 m 1
 262 750 l 1
 450 562 l 1
 450 375 l 1
 262 562 l 1
 75 375 l 1
 75 562 l 1
EndSplineSet
Validated: 1
EndChar

StartChar: underscore
Encoding: 95 95 91
Width: 825
VWidth: 1534
Flags: W
HStem: -188 188<75 825>
LayerCount: 2
Fore
SplineSet
75 -188 m 1
 75 0 l 1
 825 0 l 1
 825 -188 l 1
 75 -188 l 1
EndSplineSet
Validated: 1
EndChar

StartChar: grave
Encoding: 96 96 92
Width: 429
VWidth: 1515
Flags: W
HStem: 470 280<170 262>
VStem: 75 281
LayerCount: 2
Fore
SplineSet
75 750 m 1
 262 750 l 1
 356 470 l 1
 170 470 l 1
 75 750 l 1
EndSplineSet
Validated: 1
EndChar

StartChar: bar
Encoding: 124 124 93
Width: 337
VWidth: 1515
Flags: W
HStem: 0 21G<75 262> 0 21G<75 262> 730 20G<75 262>
VStem: 75 187<0 750>
LayerCount: 2
Fore
SplineSet
75 0 m 1xb0
 75 750 l 1
 262 750 l 1
 262 0 l 1
 75 0 l 1xb0
EndSplineSet
Validated: 1
EndChar

StartChar: asciitilde
Encoding: 126 126 94
Width: 804
VWidth: 1515
Flags: W
HStem: 188 187<503.04 628.96> 375 187<176.828 302.536>
LayerCount: 2
Fore
SplineSet
75 470 m 1x40
 75 470 176 562 240 562 c 0x40
 304 562 402 470 402 470 c 1
 402 470 502 375 566 375 c 0
 630 375 730 470 730 470 c 1
 730 280 l 1
 730 280 630 188 566 188 c 0x80
 502 188 402 280 402 280 c 1
 402 280 304 375 240 375 c 0
 176 375 75 280 75 280 c 1
 75 470 l 1x40
EndSplineSet
Validated: 1
EndChar
